<svg width="36" height="39" viewBox="0 0 36 39" fill="none" xmlns="http://www.w3.org/2000/svg">
<path d="M26.7842 18.2672L19.7401 14.2037C19.4196 14.0161 19.0239 14.0161 18.7034 14.2037L12.5112 17.7764C12.2311 17.9381 12.0578 18.2383 12.0578 18.5618C12.0578 19.0902 12.4911 19.4686 12.9676 19.4686C13.1178 19.4686 13.2708 19.4312 13.4182 19.3474L19.0327 16.104C19.151 16.0376 19.2925 16.0376 19.4109 16.104L20.8492 16.9358C20.9503 16.9935 20.9503 17.138 20.8492 17.1957L12.5112 22.0101C12.2311 22.1719 12.0578 22.4723 12.0578 22.7958C12.0578 23.3244 12.4911 23.7026 12.9646 23.7026C13.1148 23.7026 13.2708 23.6622 13.4182 23.5784L22.7004 18.2208C22.816 18.1546 22.9604 18.1546 23.076 18.2208L24.4911 19.0383C24.5922 19.0962 24.5922 19.2404 24.4911 19.2983L10.4722 27.3966C10.3712 27.4541 10.247 27.3819 10.247 27.2665V16.9444L15.8095 13.733C16.5027 13.3315 16.5027 12.3322 15.8095 11.9337L9.99 8.57475C9.29966 8.17346 8.43326 8.67302 8.43326 9.47298V28.8634C8.43326 29.6608 9.29966 30.1603 9.99 29.7618L26.7842 20.0664C27.4745 19.6679 27.4745 18.6686 26.7842 18.2672ZM29.0341 19.1682C29.0341 20.156 28.5055 21.0745 27.6506 21.5683L10.8564 31.2635C10.4348 31.506 9.95538 31.6361 9.47313 31.6361C7.94524 31.6361 6.70044 30.3913 6.70044 28.8634V9.47298C6.70044 7.9423 7.94524 6.70047 9.47313 6.70047C9.95538 6.70047 10.4348 6.82759 10.8564 7.07309L27.6506 16.7683C28.5055 17.2621 29.0341 18.1806 29.0341 19.1682ZM10.247 14.5907V11.0729C10.247 10.9575 10.3712 10.8853 10.4722 10.943L13.5163 12.7019C13.6176 12.7598 13.6176 12.904 13.5163 12.9617L10.4722 14.7208C10.3712 14.7783 10.247 14.7062 10.247 14.5907Z" fill="#004D8D"/>
</svg>
