<svg xmlns="http://www.w3.org/2000/svg" width="58" height="58" viewBox="0 0 58 58" fill="none">
<path d="M87.71 43.0705L82.2127 34.9924C81.4843 33.8464 80.5005 32.8846 79.3382 32.1825C78.1759 31.4803 76.8668 31.0569 75.5135 30.9454C76.39 29.9084 77.0146 28.6826 77.3384 27.3639C77.6622 26.0453 77.6764 24.6695 77.3798 23.3445L75.5634 13.7446C75.5012 13.4187 75.3422 13.1192 75.1071 12.8851C74.8721 12.6511 74.5719 12.4933 74.2458 12.4326L64.6459 10.6161C63.3209 10.319 61.9451 10.3329 60.6264 10.6567C59.3076 10.9805 58.0818 11.6054 57.0451 12.4825C56.9341 11.1289 56.5109 9.81944 55.8088 8.65692C55.1066 7.49441 54.1445 6.51044 52.9982 5.78226L44.923 0.285822C44.6501 0.0996067 44.3273 0 43.9969 0C43.6665 0 43.3437 0.0996067 43.0708 0.285822L34.9928 5.78508C33.8468 6.51344 32.885 7.49733 32.1829 8.65962C31.4808 9.8219 31.0573 11.131 30.9458 12.4843C29.9091 11.6074 28.6833 10.9825 27.3646 10.6587C26.0458 10.3349 24.67 10.3209 23.345 10.618L13.7452 12.4345C13.4201 12.4961 13.121 12.6543 12.887 12.8883C12.653 13.1223 12.4949 13.4213 12.4332 13.7464L10.6168 23.3464C10.3203 24.6713 10.3344 26.0468 10.6582 27.3653C10.982 28.6838 11.6066 29.9095 12.4831 30.9463C11.1296 31.0577 9.82035 31.4811 8.6579 32.1832C7.49546 32.8854 6.51143 33.8472 5.78299 34.9934L0.286614 43.0696C0.0999059 43.3423 0 43.6651 0 43.9957C0 44.3262 0.0999059 44.649 0.286614 44.9218L5.78299 52.9998C6.5116 54.1459 7.49566 55.1076 8.65807 55.8097C9.82049 56.5119 11.1297 56.9353 12.4831 57.0469C11.6066 58.0839 10.982 59.3097 10.6582 60.6284C10.3344 61.947 10.3202 63.3227 10.6168 64.6478L12.4332 74.2477C12.4949 74.5728 12.653 74.8719 12.887 75.1059C13.121 75.3399 13.4201 75.498 13.7452 75.5597L23.345 77.3762C23.9928 77.4997 24.6507 77.5627 25.3102 77.5644C27.3754 77.6024 29.382 76.8764 30.9449 75.5258C31.0575 76.8779 31.4814 78.1855 32.1835 79.3464C32.8855 80.5073 33.8468 81.49 34.9919 82.2175L43.068 87.714C43.3409 87.9003 43.6636 88 43.9941 88C44.3245 88 44.6473 87.9003 44.9202 87.714L52.9982 82.2166C54.1433 81.4893 55.1045 80.5068 55.8066 79.346C56.5087 78.1853 56.9326 76.8777 57.0451 75.5258C58.6073 76.879 60.6143 77.6074 62.6808 77.571C63.3406 77.5693 63.9988 77.5062 64.6469 77.3828L74.2467 75.5663C74.5728 75.5055 74.873 75.3478 75.1081 75.1137C75.3432 74.8797 75.5022 74.5802 75.5643 74.2543L77.3808 64.6544C77.6773 63.3295 77.6631 61.9539 77.3393 60.6354C77.0155 59.3169 76.391 58.0912 75.5145 57.0544C76.8679 56.943 78.1772 56.5197 79.3397 55.8175C80.5021 55.1154 81.4861 54.1535 82.2146 53.0074L87.7109 44.9312C87.8994 44.6575 88.0002 44.333 88 44.0007C87.9998 43.6684 87.8987 43.344 87.71 43.0705ZM64.0436 13.8509L72.5395 15.4584L74.1422 23.9497C74.3584 24.8233 74.3567 25.7366 74.1371 26.6094C73.9175 27.4821 73.4868 28.2876 72.883 28.9548L70.9272 30.9143H57.079V17.066L59.0338 15.1102C59.7013 14.5051 60.5075 14.0738 61.3812 13.8541C62.255 13.6345 63.1693 13.6334 64.0436 13.8509ZM41.6675 60.1669L34.2088 67.6313V57.0789H38.5805L41.6675 60.1669ZM46.3263 27.8264L53.785 20.3619V30.9143H49.4133L46.3263 27.8264ZM57.8367 43.9966L54.2678 47.5665C53.9588 47.8752 53.7852 48.294 53.785 48.7307V53.7848H48.7309C48.2942 53.785 47.8754 53.9587 47.5667 54.2676L43.9969 57.8365L40.4271 54.2676C40.1184 53.9587 39.6996 53.785 39.2629 53.7848H34.2088V48.7307C34.2086 48.294 34.0349 47.8752 33.726 47.5665L30.1618 43.9966L33.7307 40.4268C34.0379 40.1173 34.2099 39.6986 34.2088 39.2625V34.2084H39.2629C39.6996 34.2082 40.1184 34.0345 40.4271 33.7256L43.9969 30.1614L47.5667 33.7303C47.8754 34.0392 48.2942 34.2129 48.7309 34.2131H53.785V39.2672C53.7852 39.704 53.9588 40.1227 54.2678 40.4315L57.8367 43.9966ZM38.5805 30.9143H34.2088V20.3619L41.6675 27.8264L38.5805 30.9143ZM30.9148 38.5802L27.8268 41.6672L20.3625 34.2084H30.9148V38.5802ZM27.8268 46.326L30.9148 49.413V53.7848H20.3625L27.8268 46.326ZM49.4133 57.0789H53.785V67.6313L46.3263 60.1669L49.4133 57.0789ZM57.079 49.413L60.167 46.326L67.6313 53.7848H57.079V49.413ZM60.167 41.6672L57.079 38.5802V34.2084H67.6313L60.167 41.6672ZM36.8441 8.5013L43.9969 3.63639L51.1431 8.50036C51.9117 8.96533 52.5545 9.61177 53.0151 10.383C53.4757 11.1542 53.74 12.0267 53.785 12.9239V15.6975L43.9969 25.497L34.2088 15.7022V12.9286C34.2525 12.0314 34.5156 11.1586 34.9751 10.3867C35.4345 9.61484 36.0763 8.96746 36.8441 8.5013ZM13.8515 23.9544L15.4591 15.4584L23.9502 13.8509C24.8237 13.6339 25.7373 13.6352 26.6102 13.8549C27.4831 14.0745 28.2885 14.5056 28.9553 15.1102L30.9148 17.066V30.9143H17.0666L15.1108 28.9586C14.507 28.2915 14.0764 27.4862 13.8568 26.6136C13.6372 25.741 13.6354 24.8278 13.8515 23.9544ZM8.502 51.1495L3.63714 43.9966L8.50106 36.8503C8.96602 36.0817 9.61245 35.4389 10.3837 34.9783C11.1549 34.5177 12.0273 34.2533 12.9245 34.2084H15.6981L25.4975 43.9966L15.7028 53.7848H12.9292C12.032 53.7411 11.1592 53.478 10.3874 53.0186C9.61553 52.5591 8.96815 51.9173 8.502 51.1495ZM23.9549 74.1423L15.4591 72.5348L13.8515 64.0435C13.6354 63.1699 13.6371 62.2566 13.8567 61.3839C14.0763 60.5111 14.507 59.7057 15.1108 59.0384L17.0666 57.0789H30.9148V70.9273L28.959 72.883C28.2922 73.4872 27.4869 73.9181 26.6143 74.1377C25.7416 74.3574 24.8283 74.3589 23.9549 74.1423ZM51.1497 79.4919L43.9969 84.3568L36.8507 79.4929C36.0821 79.0279 35.4393 78.3815 34.9787 77.6102C34.5181 76.839 34.2537 75.9665 34.2088 75.0694V72.291L43.9969 62.4963L53.785 72.291V75.0647C53.7413 75.9618 53.4782 76.8346 53.0187 77.6065C52.5593 78.3784 51.9175 79.0258 51.1497 79.4919ZM74.1422 64.0435L72.5347 72.5385L64.0436 74.1423C63.1699 74.3591 62.2563 74.3576 61.3833 74.138C60.5103 73.9184 59.7047 73.4874 59.0376 72.883L57.079 70.9273V57.0789H70.9272L72.883 59.0346C73.4874 59.7023 73.9185 60.5084 74.1381 61.3818C74.3577 62.2553 74.3591 63.1694 74.1422 64.0435ZM79.4927 51.1495C79.0278 51.9181 78.3813 52.5609 77.6101 53.0215C76.8389 53.4821 75.9665 53.7465 75.0693 53.7914H72.291L62.4963 43.9966L72.291 34.2084H75.0646C75.9611 34.2527 76.8331 34.5161 77.6043 34.9755C78.3754 35.4349 79.0222 36.0764 79.488 36.8437L84.3529 43.9966L79.4927 51.1495Z" fill="#ECF1F9" fill-opacity="0.2"/>
</svg>