<svg width="346" height="236" viewBox="0 0 346 236" fill="none" xmlns="http://www.w3.org/2000/svg">
<rect width="346" height="236" rx="12" fill="#004D8D"/>
<mask id="mask0_2028_2762" style="mask-type:alpha" maskUnits="userSpaceOnUse" x="0" y="0" width="346" height="236">
<rect width="346" height="236" rx="12" fill="#004D8D"/>
</mask>
<g mask="url(#mask0_2028_2762)">
<path d="M462.328 159.845L449.584 141.119C447.896 138.462 445.615 136.232 442.92 134.605C440.226 132.977 437.191 131.996 434.054 131.737C436.086 129.333 437.534 126.491 438.285 123.435C439.035 120.378 439.068 117.188 438.381 114.117L434.17 91.8624C434.026 91.107 433.657 90.4127 433.112 89.8701C432.567 89.3275 431.871 88.9618 431.115 88.821L408.861 84.6101C405.789 83.9213 402.6 83.9535 399.543 84.7041C396.486 85.4548 393.644 86.9035 391.241 88.9366C390.984 85.7988 390.003 82.7632 388.375 80.0683C386.747 77.3734 384.517 75.0924 381.859 73.4043L363.14 60.6626C362.507 60.2309 361.759 60 360.993 60C360.227 60 359.479 60.2309 358.846 60.6626L340.12 73.4109C337.463 75.0993 335.233 77.3802 333.606 80.0746C331.978 82.769 330.997 85.8037 330.738 88.941C328.335 86.908 325.493 85.4594 322.436 84.7087C319.379 83.9581 316.19 83.9258 313.118 84.6144L290.864 88.8253C290.11 88.9683 289.417 89.3349 288.874 89.8773C288.332 90.4198 287.965 91.113 287.822 91.8668L283.612 114.121C282.924 117.193 282.957 120.381 283.708 123.438C284.458 126.494 285.906 129.336 287.938 131.739C284.801 131.997 281.765 132.979 279.071 134.607C276.376 136.234 274.095 138.464 272.406 141.121L259.664 159.843C259.232 160.475 259 161.224 259 161.99C259 162.756 259.232 163.505 259.664 164.137L272.406 182.863C274.095 185.52 276.376 187.749 279.071 189.377C281.766 191.005 284.801 191.986 287.938 192.245C285.906 194.649 284.458 197.491 283.708 200.548C282.957 203.604 282.924 206.794 283.612 209.865L287.822 232.12C287.965 232.873 288.332 233.567 288.874 234.109C289.417 234.652 290.11 235.018 290.864 235.161L313.118 239.372C314.62 239.658 316.145 239.804 317.674 239.808C322.461 239.896 327.113 238.214 330.736 235.083C330.997 238.217 331.98 241.248 333.607 243.939C335.235 246.631 337.463 248.909 340.118 250.595L358.839 263.337C359.472 263.769 360.22 264 360.986 264C361.752 264 362.501 263.769 363.133 263.337L381.859 250.593C384.514 248.907 386.742 246.629 388.37 243.939C389.998 241.248 390.98 238.217 391.241 235.083C394.862 238.22 399.515 239.908 404.305 239.824C405.835 239.82 407.361 239.674 408.863 239.387L431.117 235.176C431.873 235.036 432.569 234.67 433.114 234.127C433.659 233.585 434.028 232.89 434.172 232.135L438.383 209.881C439.07 206.809 439.037 203.62 438.287 200.564C437.536 197.507 436.088 194.666 434.056 192.262C437.194 192.004 440.229 191.023 442.924 189.395C445.619 187.767 447.9 185.538 449.588 182.881L462.33 164.159C462.767 163.524 463 162.772 463 162.002C463 161.231 462.765 160.479 462.328 159.845ZM407.465 92.1089L427.16 95.8355L430.875 115.52C431.376 117.545 431.372 119.662 430.863 121.685C430.354 123.709 429.356 125.576 427.956 127.123L423.422 131.665H391.32V99.562L395.851 95.0282C397.398 93.6256 399.267 92.6255 401.293 92.1164C403.318 91.6073 405.438 91.6047 407.465 92.1089ZM355.593 199.478L338.302 216.782V192.319H348.437L355.593 199.478ZM366.393 124.507L383.683 107.203V131.665H373.549L366.393 124.507ZM393.076 161.992L384.803 170.268C384.086 170.983 383.684 171.954 383.683 172.967V184.683H371.967C370.955 184.683 369.984 185.086 369.268 185.802L360.993 194.076L352.717 185.802C352.002 185.086 351.031 184.683 350.018 184.683H338.302V172.967C338.302 171.954 337.899 170.983 337.183 170.268L328.921 161.992L337.194 153.717C337.906 152.999 338.305 152.029 338.302 151.018V139.301H350.018C351.031 139.301 352.002 138.898 352.717 138.182L360.993 129.92L369.268 138.193C369.984 138.909 370.955 139.312 371.967 139.312H383.683V151.029C383.684 152.041 384.086 153.012 384.803 153.727L393.076 161.992ZM348.437 131.665H338.302V107.203L355.593 124.507L348.437 131.665ZM330.666 149.436L323.508 156.592L306.204 139.301H330.666V149.436ZM323.508 167.392L330.666 174.548V184.683H306.204L323.508 167.392ZM373.549 192.319H383.683V216.782L366.393 199.478L373.549 192.319ZM391.32 174.548L398.478 167.392L415.782 184.683H391.32V174.548ZM398.478 156.592L391.32 149.436V139.301H415.782L398.478 156.592ZM344.411 79.7076L360.993 68.4298L377.559 79.7054C379.341 80.7833 380.831 82.2818 381.899 84.0697C382.966 85.8575 383.579 87.88 383.683 89.9599V96.3896L360.993 119.107L338.302 96.4005V89.9708C338.404 87.8909 339.013 85.8676 340.079 84.0783C341.144 82.289 342.631 80.7882 344.411 79.7076ZM291.11 115.531L294.837 95.8355L314.521 92.1089C316.546 91.6058 318.664 91.609 320.687 92.1181C322.711 92.6272 324.578 93.6266 326.124 95.0282L330.666 99.562V131.665H298.563L294.03 127.131C292.63 125.585 291.632 123.718 291.123 121.695C290.614 119.672 290.609 117.555 291.11 115.531ZM278.709 178.574L267.432 161.992L278.707 145.426C279.785 143.644 281.283 142.154 283.071 141.086C284.859 140.018 286.882 139.405 288.961 139.301H295.391L318.108 161.992L295.402 184.683H288.972C286.892 184.582 284.869 183.972 283.08 182.907C281.291 181.842 279.79 180.354 278.709 178.574ZM314.532 231.875L294.837 228.149L291.11 208.465C290.609 206.439 290.613 204.322 291.122 202.299C291.631 200.276 292.63 198.409 294.03 196.862L298.563 192.319H330.666V224.422L326.132 228.956C324.586 230.357 322.72 231.356 320.697 231.865C318.674 232.374 316.557 232.377 314.532 231.875ZM377.574 244.277L360.993 255.554L344.427 244.279C342.645 243.201 341.155 241.702 340.087 239.915C339.019 238.127 338.406 236.104 338.302 234.024V227.584L360.993 204.878L383.683 227.584V234.014C383.582 236.093 382.972 238.117 381.907 239.906C380.842 241.695 379.354 243.196 377.574 244.277ZM430.875 208.465L427.149 228.158L407.465 231.875C405.439 232.378 403.321 232.374 401.298 231.865C399.274 231.356 397.406 230.357 395.86 228.956L391.32 224.422V192.319H423.422L427.956 196.853C429.357 198.401 430.356 200.269 430.865 202.294C431.375 204.319 431.378 206.438 430.875 208.465ZM443.279 178.574C442.201 180.356 440.702 181.846 438.914 182.913C437.127 183.981 435.104 184.594 433.024 184.698H426.584L403.878 161.992L426.584 139.301H433.013C435.092 139.404 437.113 140.015 438.901 141.08C440.689 142.145 442.188 143.632 443.268 145.41L454.545 161.992L443.279 178.574Z" fill="#ECF1F9" fill-opacity="0.08"/>
<path d="M92.0719 200.414C92.1553 200.344 92.2665 200.344 92.336 200.427C92.336 200.427 92.9616 201.148 94.1155 202.339C95.2693 203.53 96.9514 205.22 99.1201 207.063C100.204 207.977 101.4 208.947 102.749 209.847C104.097 210.734 105.571 211.592 107.267 211.939C108.977 212.313 110.784 212.382 112.647 212.368C113.578 212.396 114.537 212.34 115.552 212.645C116.053 212.811 116.581 213.185 116.803 213.767C116.901 213.975 117.012 214.349 116.928 214.681C116.859 215.014 116.678 215.291 116.484 215.499C115.622 216.274 114.593 216.441 113.62 216.538C112.647 216.621 111.673 216.538 110.728 216.371C108.851 216.025 107.086 215.374 105.501 214.487C103.916 213.587 102.554 212.493 101.317 211.398C100.079 210.304 98.9811 209.196 98.008 208.143C94.1155 203.891 92.0441 200.635 92.0441 200.635C92.0024 200.58 92.0024 200.483 92.0719 200.414ZM92.3499 200.441C92.3499 200.441 94.4769 203.627 98.4111 207.769C99.3843 208.808 100.483 209.902 101.706 210.969C102.929 212.036 104.278 213.102 105.807 213.947C107.322 214.792 109.06 215.402 110.853 215.706C111.743 215.845 112.661 215.914 113.564 215.831C114.44 215.748 115.399 215.513 115.955 214.972C116.219 214.681 116.289 214.474 116.122 214.058C115.997 213.739 115.691 213.49 115.302 213.352C114.509 213.088 113.55 213.102 112.633 213.075C110.77 213.061 108.893 212.978 107.128 212.562C105.334 212.174 103.777 211.246 102.415 210.346C101.052 209.418 99.8291 208.434 98.7587 207.492C96.6039 205.594 94.9496 203.863 93.8096 202.63C92.6697 201.397 92.0441 200.663 92.0441 200.663L92.3499 200.441Z" fill="#0B4677"/>
<path d="M90.3759 199.278C90.4732 199.222 90.5844 199.264 90.6261 199.361C90.6261 199.361 92.1692 202.242 94.8245 206.342C95.4779 207.367 96.2286 208.462 97.0488 209.584C97.8829 210.706 98.7587 211.856 99.8987 212.811C101.053 213.753 102.415 214.474 103.861 215.111C104.584 215.443 105.334 215.734 106.057 216.261C106.405 216.524 106.794 216.953 106.808 217.563C106.877 218.048 106.488 218.726 105.988 218.879C105.015 219.239 104.153 218.962 103.36 218.699C102.568 218.408 101.845 217.992 101.178 217.535C99.8152 216.621 98.6753 215.485 97.6327 214.349C95.5335 212.063 94.1433 209.459 93.2119 207.174C92.2943 204.874 91.6688 202.921 91.1405 201.591C90.6261 200.261 90.2925 199.513 90.2925 199.513C90.2508 199.43 90.2925 199.333 90.3759 199.278ZM90.6261 199.375C90.6261 199.375 90.9737 200.109 91.5298 201.439C92.0858 202.769 92.767 204.708 93.7262 206.952C94.6577 209.196 96.02 211.717 98.0914 213.92C99.1201 215.028 100.246 216.108 101.539 216.953C102.192 217.383 102.874 217.757 103.597 218.02C104.292 218.269 105.112 218.435 105.682 218.186C105.96 218.061 106.071 217.895 106.071 217.563C106.071 217.327 105.89 217.064 105.612 216.842C105.042 216.399 104.278 216.094 103.569 215.748C102.123 215.083 100.691 214.321 99.4955 213.31C98.3138 212.299 97.3824 211.08 96.5622 209.944C95.742 208.794 94.9913 207.686 94.3518 206.647C91.78 202.464 90.2925 199.541 90.2925 199.541L90.6261 199.375Z" fill="#0B4677"/>
<path d="M89.3332 198.807C89.3471 198.724 89.3888 198.669 89.4722 198.641C89.5695 198.613 89.6669 198.682 89.6947 198.779C89.6947 198.779 90.3481 201.467 91.5853 205.401C91.9051 206.384 92.2387 207.451 92.6558 208.545C93.0728 209.653 93.5177 210.789 94.1572 211.884C94.8105 212.936 95.6725 213.934 96.6039 214.89C97.0626 215.374 97.577 215.818 98.0219 216.427C98.2304 216.746 98.4667 217.134 98.3555 217.702C98.3277 217.84 98.2999 217.882 98.2721 217.979C98.2165 218.131 98.1331 218.214 98.0636 218.325C97.8829 218.519 97.6465 218.63 97.4102 218.671C96.4788 218.768 95.8393 218.283 95.2832 217.84C94.7271 217.369 94.2684 216.829 93.8791 216.247C93.1006 215.084 92.5723 213.823 92.1414 212.59C91.2934 210.124 90.7234 207.756 90.2785 205.733C89.8476 203.697 89.5696 201.979 89.4166 200.774C89.3471 200.165 89.3054 199.694 89.3054 199.347C89.3193 198.973 89.3332 198.807 89.3332 198.807ZM89.7086 198.835C89.7086 198.835 89.6947 199.015 89.7086 199.334C89.7225 199.638 89.7642 200.095 89.8615 200.691C90.0422 201.882 90.362 203.572 90.8485 205.581C91.3212 207.589 91.9051 209.931 92.7531 212.355C93.184 213.56 93.7123 214.765 94.463 215.832C94.8383 216.372 95.2693 216.857 95.7559 217.258C96.2285 217.66 96.8541 217.979 97.299 217.909C97.4102 217.896 97.4797 217.854 97.5353 217.799C97.5492 217.771 97.6048 217.715 97.6048 217.702C97.6326 217.632 97.6882 217.522 97.6743 217.48C97.7021 217.355 97.6326 217.064 97.4519 216.829C97.1043 216.33 96.59 215.845 96.1312 215.361C95.1859 214.377 94.324 213.338 93.6428 212.202C92.9755 211.066 92.5306 209.861 92.1136 208.753C91.7104 207.631 91.3629 206.551 91.0709 205.567C89.9171 201.578 89.3332 198.863 89.3332 198.863L89.7086 198.835Z" fill="#0B4677"/>
<path d="M0.37535 214.737C0.472663 214.543 0.611681 214.419 0.792405 214.349C1.18166 214.225 1.61261 214.446 2.2521 214.793C3.29474 215.333 4.85174 216.164 7.31237 216.219C12.456 216.441 17.9473 211.44 24.8843 205.11C26.622 203.531 28.4154 201.896 30.3338 200.206C38.4803 193.114 44.4025 189.11 54.0921 186.963C58.9299 185.897 64.0041 185.717 68.7446 186.465C84.9402 189.013 91.4463 200.289 90.64 209.695C90.64 209.709 90.64 209.736 90.64 209.764C90.0144 216.663 85.1349 223.547 75.5843 223.409C71.4833 223.298 68.0773 222.051 65.4777 219.682C62.2246 216.76 61.5574 213.864 61.5574 211.939C61.5713 209.099 63.0031 206.827 64.3516 205.636C65.436 204.667 66.7705 204.223 67.6881 204.542C68.119 204.694 68.3971 205.013 68.4805 205.428C68.6334 206.273 67.9661 207.382 66.5342 208.656C65.4777 209.543 65.0189 210.983 65.2691 212.632C65.6862 215.402 67.9105 217.84 71.1913 219.142C76.2933 220.998 80.8531 220.333 84.0088 217.244C87.3453 213.989 88.4991 208.517 86.956 203.309C84.7595 195.926 77.9754 190.759 68.3414 189.124C63.9068 188.362 59.1523 188.459 54.5925 189.415C45.3756 191.327 39.648 195.095 31.6684 201.841C29.7499 203.461 27.9566 205.068 26.205 206.62C18.8787 213.13 13.0816 218.283 7.24286 217.923C5.24099 217.84 3.40595 217.272 1.08434 216.025L0.987031 215.984C0.750699 215.859 0.417055 215.693 0.30584 215.347C0.278037 215.277 0.264135 215.18 0.278037 215.07C0.291939 214.959 0.319742 214.862 0.37535 214.737ZM1.40409 215.402C3.62838 216.593 5.39391 217.147 7.28456 217.217C12.8592 217.549 18.559 212.493 25.7601 206.079C27.5117 204.528 29.3051 202.921 31.2235 201.287C38.1049 195.469 44.194 190.856 54.4396 188.723C59.0828 187.767 63.9207 187.67 68.4388 188.432C78.323 190.108 85.3017 195.455 87.5816 203.087C89.2081 208.545 87.9847 214.28 84.4676 217.715C81.1172 220.984 76.3211 221.705 70.955 219.752C67.4378 218.353 65.0606 215.721 64.6019 212.701C64.3238 210.845 64.8799 209.127 66.1032 208.102C67.8549 206.55 67.8688 205.733 67.8271 205.525C67.8132 205.456 67.7715 205.262 67.4795 205.151C66.9096 204.957 65.8113 205.221 64.8104 206.107C63.587 207.201 62.2663 209.293 62.2524 211.897C62.2385 214.446 63.5175 216.953 65.9503 219.128C68.4388 221.386 71.6918 222.577 75.626 222.688C84.7456 222.813 89.4027 216.247 90.0005 209.667C90.0005 209.653 90.0005 209.626 90.0005 209.612C90.779 200.525 84.4398 189.609 68.6751 187.143C64.0041 186.409 59.0272 186.589 54.2589 187.642C44.7083 189.762 38.8695 193.709 30.7926 200.732C28.8741 202.409 27.0808 204.043 25.357 205.622C18.2809 212.064 12.7063 217.147 7.28456 216.912C4.68492 216.843 2.96109 215.942 1.94626 215.416C1.57091 215.222 1.11215 214.973 1.00093 215.014L0.945325 215.111C0.973129 215.18 1.20946 215.305 1.29287 215.347L1.40409 215.402Z" fill="#0B4677"/>
<path d="M69.1061 214.335C68.5083 214.279 67.9939 214.736 67.9383 215.332C67.8827 215.941 68.3136 216.468 68.9114 216.523C69.5092 216.579 70.0236 216.122 70.0792 215.526C70.1348 214.916 69.7038 214.39 69.1061 214.335Z" fill="#0B4677"/>
<path d="M72.7345 216.316C72.1367 216.261 71.6223 216.704 71.5667 217.314C71.5111 217.923 71.9421 218.449 72.5398 218.505C73.1376 218.56 73.652 218.117 73.7076 217.507C73.7632 216.898 73.3323 216.372 72.7345 216.316Z" fill="#0B4677"/>
<path d="M76.5157 217.203C75.9179 217.147 75.4036 217.605 75.348 218.2C75.2924 218.81 75.7233 219.336 76.3211 219.391C76.9189 219.447 77.4332 219.004 77.4889 218.394C77.5445 217.785 77.1135 217.258 76.5157 217.203Z" fill="#0B4677"/>
<path d="M81.0755 216.51C80.4917 216.454 79.9634 216.897 79.9078 217.507C79.8522 218.116 80.2831 218.643 80.8809 218.698C81.4787 218.754 81.9931 218.296 82.0487 217.701C82.1043 217.091 81.6594 216.565 81.0755 216.51Z" fill="#0B4677"/>
<path d="M84.5093 212.992C83.9115 212.936 83.3972 213.394 83.3416 213.989C83.286 214.599 83.7169 215.125 84.3147 215.181C84.9125 215.236 85.4268 214.779 85.4824 214.183C85.5381 213.588 85.0932 213.047 84.5093 212.992Z" fill="#0B4677"/>
<path d="M86.0246 208.032C85.4268 207.977 84.9125 208.42 84.8569 209.029C84.8013 209.639 85.2322 210.165 85.83 210.221C86.4278 210.276 86.9421 209.819 86.9978 209.223C87.0534 208.614 86.6224 208.087 86.0246 208.032Z" fill="#0B4677"/>
<path d="M85.1905 202.602C84.5927 202.547 84.0784 202.99 84.0228 203.6C83.9672 204.209 84.3981 204.736 84.9959 204.791C85.5937 204.846 86.108 204.389 86.1637 203.794C86.2193 203.184 85.7744 202.658 85.1905 202.602Z" fill="#0B4677"/>
<path d="M82.7021 198.295C82.1043 198.239 81.5899 198.696 81.5343 199.292C81.4787 199.901 81.9097 200.428 82.5074 200.483C83.1052 200.539 83.6196 200.082 83.6752 199.486C83.7308 198.89 83.2998 198.35 82.7021 198.295Z" fill="#0B4677"/>
<path d="M61.4322 188.099C61.5713 188.03 61.7242 188.058 61.8354 188.169C61.8493 188.182 63.1144 189.54 68.0495 190.094C73.5268 190.717 76.8494 193.363 78.5315 198.433C78.5871 198.572 78.5315 198.738 78.3925 198.835C78.2674 198.918 78.1006 198.904 77.9754 198.793C77.9476 198.766 75.3619 196.341 71.7335 196.023C65.5472 195.469 62.1134 193.003 61.2376 188.459C61.2376 188.432 61.2237 188.39 61.2376 188.362C61.2515 188.266 61.321 188.155 61.4322 188.099ZM67.9661 190.787C64.7548 190.426 63.0032 189.72 62.1134 189.221C63.1978 192.864 66.3813 194.873 71.803 195.358C74.3193 195.579 76.3489 196.743 77.4611 197.533C75.7789 193.432 72.804 191.327 67.9661 190.787Z" fill="#0B4677"/>
<path d="M45.7231 191.507L45.8066 192.186C57.8316 190.676 60.2923 197.948 60.3896 198.253C60.4313 198.392 60.5564 198.488 60.7093 198.488C60.8483 198.488 60.9874 198.405 61.0291 198.253C61.0569 198.17 61.752 196.12 60.5147 193.903C59.2496 191.632 56.4971 190.066 52.3265 189.249L52.2014 189.928C56.1634 190.704 58.7631 192.158 59.9308 194.236C60.5286 195.289 60.612 196.314 60.5703 197.034C59.3609 194.915 55.5795 190.26 45.7231 191.507Z" fill="#0B4677"/>
<path d="M32.6415 200.122C41.7055 191.7 49.713 198.1 49.7964 198.155C49.9076 198.252 49.9493 198.419 49.8937 198.557C49.8381 198.696 49.6991 198.779 49.5462 198.765C49.5045 198.765 45.9734 198.377 41.6499 200.386C34.9076 203.516 32.6972 200.704 32.5998 200.593C32.5442 200.524 32.5303 200.441 32.5303 200.358C32.5442 200.261 32.572 200.178 32.6415 200.122ZM33.3644 200.386C34.0456 200.926 36.3255 202.103 41.3719 199.762C44.3747 198.363 46.9743 198.086 48.4201 198.058C46.1541 196.701 40.1763 194.249 33.3644 200.386Z" fill="#0B4677"/>
<path d="M32.9196 200.497C32.9196 200.497 33.4617 200.261 34.268 200.026C34.6712 199.901 35.1299 199.693 35.6443 199.568C36.1587 199.444 36.7148 199.305 37.2708 199.181C37.813 199.014 38.3691 198.862 38.8973 198.807C39.4256 198.724 39.9122 198.64 40.3431 198.585C41.1912 198.433 41.7472 198.322 41.7472 198.322H41.7611C41.8306 198.308 41.8723 198.239 41.8584 198.169C41.8445 198.1 41.7889 198.059 41.7194 198.059C41.7194 198.059 41.1494 198.1 40.2875 198.183C39.8566 198.239 39.3561 198.294 38.8139 198.363C38.2718 198.405 37.7018 198.53 37.1457 198.682C36.5896 198.834 36.0336 199.001 35.5053 199.153C34.977 199.305 34.5183 199.527 34.1012 199.665C33.281 199.984 32.7944 200.275 32.7944 200.275H32.7805C32.7249 200.317 32.6971 200.4 32.7388 200.455C32.7944 200.497 32.8639 200.524 32.9196 200.497Z" fill="#0B4677"/>
<path d="M104.333 204.444C113.509 196.161 121.433 202.685 121.502 202.74C121.613 202.837 121.655 203.004 121.599 203.142C121.544 203.281 121.391 203.364 121.252 203.35C121.21 203.35 117.693 202.879 113.342 204.846C108.407 207.076 104.57 205.095 104.403 205.012C104.306 204.957 104.236 204.86 104.222 204.749C104.222 204.721 104.222 204.694 104.222 204.68C104.236 204.583 104.278 204.5 104.333 204.444ZM105.195 204.597C106.335 205.026 109.407 205.871 113.078 204.209C116.094 202.851 118.694 202.602 120.14 202.602C117.902 201.231 112.035 198.723 105.195 204.597Z" fill="#0B4677"/>
<path d="M104.611 204.818C104.611 204.818 105.154 204.597 105.974 204.361C106.377 204.237 106.836 204.043 107.364 203.932C107.878 203.807 108.434 203.683 108.99 203.558C109.533 203.392 110.089 203.267 110.617 203.212C111.145 203.142 111.632 203.073 112.063 203.004C112.911 202.865 113.467 202.754 113.467 202.754H113.481C113.55 202.741 113.592 202.671 113.578 202.602C113.564 202.533 113.509 202.491 113.439 202.491C113.439 202.491 112.869 202.519 112.007 202.588C111.576 202.63 111.076 202.685 110.534 202.741C109.991 202.768 109.421 202.879 108.865 203.031C108.309 203.184 107.739 203.336 107.225 203.475C106.697 203.613 106.224 203.835 105.821 203.973C105.001 204.278 104.5 204.569 104.5 204.569H104.486C104.431 204.611 104.403 204.694 104.445 204.749C104.486 204.818 104.556 204.846 104.611 204.818Z" fill="#0B4677"/>
<path d="M141.84 200.109C151.016 191.826 158.94 198.35 159.009 198.405C159.12 198.502 159.162 198.669 159.107 198.807C159.051 198.946 158.898 199.029 158.759 199.015C158.717 199.015 155.186 198.544 150.849 200.511C145.914 202.741 142.077 200.76 141.91 200.677C141.813 200.622 141.743 200.525 141.729 200.414C141.729 200.386 141.729 200.359 141.729 200.345C141.743 200.248 141.771 200.165 141.84 200.109ZM142.688 200.262C143.828 200.691 146.901 201.536 150.571 199.874C153.588 198.516 156.187 198.267 157.633 198.267C155.409 196.909 149.528 194.388 142.688 200.262Z" fill="#0B4677"/>
<path d="M142.118 200.497C142.118 200.497 142.661 200.275 143.481 200.04C143.884 199.915 144.343 199.721 144.871 199.611C145.385 199.486 145.941 199.361 146.498 199.237C147.04 199.07 147.596 198.946 148.124 198.89C148.652 198.821 149.139 198.752 149.57 198.682C150.418 198.544 150.974 198.433 150.974 198.433H150.988C151.057 198.419 151.099 198.35 151.085 198.281C151.071 198.211 151.016 198.17 150.946 198.17C150.946 198.17 150.376 198.198 149.514 198.267C149.083 198.308 148.583 198.364 148.041 198.419C147.498 198.447 146.929 198.558 146.372 198.71C145.816 198.863 145.246 199.015 144.732 199.153C144.204 199.292 143.731 199.514 143.328 199.652C142.508 199.957 142.007 200.248 142.007 200.248H141.993C141.938 200.289 141.91 200.372 141.952 200.428C141.993 200.497 142.063 200.511 142.118 200.497Z" fill="#0B4677"/>
<path d="M140.256 181.367C140.381 181.284 140.548 181.284 140.659 181.395C140.742 181.464 148.402 188.279 142.021 198.959C141.966 199.056 141.868 199.125 141.757 199.125C141.646 199.125 141.535 199.084 141.479 198.987C141.368 198.835 138.796 195.33 140.075 189.969C141.201 185.245 140.144 181.796 140.131 181.755C140.117 181.713 140.117 181.658 140.117 181.616C140.117 181.519 140.172 181.436 140.256 181.367ZM140.714 190.135C139.755 194.111 141.104 197.061 141.715 198.128C146.178 190.232 142.73 184.761 141.02 182.752C141.187 183.749 141.354 185.329 141.173 187.282C141.104 188.168 140.965 189.124 140.714 190.135Z" fill="#0B4677"/>
<path d="M141.868 198.807C141.868 198.807 142.063 198.253 142.216 197.38C142.285 196.937 142.41 196.425 142.452 195.884C142.494 195.33 142.549 194.748 142.591 194.153C142.633 193.557 142.647 192.975 142.577 192.421C142.536 191.867 142.494 191.355 142.466 190.911C142.383 190.025 142.313 189.443 142.313 189.443C142.299 189.374 142.244 189.318 142.174 189.332C142.105 189.346 142.063 189.401 142.063 189.457V189.471C142.063 189.471 142.049 190.053 142.077 190.925C142.091 191.355 142.105 191.867 142.132 192.407C142.174 192.948 142.146 193.529 142.091 194.111C142.063 194.693 142.049 195.275 142.021 195.815C141.993 196.355 141.896 196.854 141.854 197.283C141.771 198.142 141.66 198.724 141.66 198.724C141.646 198.793 141.688 198.863 141.757 198.876C141.771 198.918 141.84 198.876 141.868 198.807Z" fill="#0B4677"/>
<path d="M94.4074 199.984C103.583 191.701 111.507 198.225 111.576 198.294C111.687 198.391 111.729 198.558 111.674 198.696C111.618 198.835 111.465 198.918 111.326 198.904C111.284 198.904 107.753 198.433 103.416 200.4C98.4807 202.63 94.6437 200.649 94.4769 200.566C94.3796 200.511 94.3101 200.414 94.2962 200.303C94.2962 200.275 94.2962 200.248 94.2962 200.234C94.3101 200.123 94.3379 200.04 94.4074 199.984ZM95.2554 200.137C96.3954 200.566 99.4677 201.411 103.138 199.749C106.154 198.391 108.754 198.142 110.2 198.142C107.976 196.785 102.095 194.263 95.2554 200.137Z" fill="#0B4677"/>
<path d="M94.6854 200.358C94.6854 200.358 95.2276 200.137 96.0478 199.901C96.451 199.777 96.9097 199.583 97.438 199.472C97.9524 199.347 98.5084 199.223 99.0645 199.098C99.6067 198.932 100.163 198.807 100.691 198.752C101.219 198.682 101.706 198.613 102.137 198.544C102.985 198.405 103.541 198.294 103.541 198.294H103.555C103.624 198.281 103.666 198.211 103.652 198.142C103.638 198.073 103.583 198.031 103.513 198.031C103.513 198.031 102.943 198.059 102.081 198.128C101.65 198.17 101.15 198.225 100.608 198.281C100.065 198.308 99.4955 198.419 98.9394 198.571C98.3833 198.724 97.8134 198.876 97.299 199.015C96.7707 199.153 96.298 199.375 95.8949 199.513C95.0747 199.818 94.5742 200.109 94.5742 200.109H94.5603C94.5047 200.151 94.4769 200.234 94.5186 200.289C94.5464 200.358 94.6159 200.386 94.6854 200.358Z" fill="#0B4677"/>
<path d="M86.4556 195.926C94.7272 186.7 103.277 192.324 103.36 192.38C103.485 192.463 103.541 192.629 103.499 192.768C103.458 192.92 103.319 193.017 103.166 193.003C103.124 193.003 99.565 192.92 95.4501 195.344C90.7652 198.101 86.7475 196.535 86.5807 196.466C86.4834 196.425 86.4 196.341 86.3722 196.231C86.3583 196.189 86.3583 196.161 86.3583 196.12C86.3722 196.051 86.4 195.981 86.4556 195.926ZM87.3175 195.981C88.4992 196.286 91.641 196.785 95.1164 194.748C97.9802 193.072 100.538 192.546 101.97 192.38C99.6206 191.272 93.5177 189.401 87.3175 195.981Z" fill="#0B4677"/>
<path d="M86.7614 196.272C86.7614 196.272 87.2758 195.995 88.0682 195.676C88.4575 195.51 88.9023 195.275 89.4028 195.095C89.9033 194.915 90.4454 194.734 90.9876 194.554C91.5159 194.333 92.0441 194.139 92.5724 194.028C93.0868 193.889 93.5733 193.779 93.9904 193.668C94.8106 193.446 95.3667 193.266 95.3667 193.266H95.3806C95.4501 193.238 95.4918 193.169 95.464 193.1C95.4501 193.031 95.3806 193.003 95.325 193.003C95.325 193.003 94.755 193.086 93.907 193.266C93.476 193.363 92.9895 193.46 92.4612 193.571C91.919 193.654 91.3769 193.834 90.8208 194.042C90.2786 194.25 89.7364 194.457 89.236 194.651C88.7355 194.845 88.2906 195.108 87.8875 195.302C87.0951 195.69 86.6363 196.037 86.6363 196.037L86.6224 196.05C86.5668 196.092 86.5529 196.175 86.5946 196.231C86.6363 196.286 86.7058 196.3 86.7614 196.272Z" fill="#0B4677"/>
<path d="M37.3403 176.768C37.4377 176.657 37.6045 176.63 37.7435 176.699C37.8825 176.768 37.952 176.921 37.9242 177.073C37.9242 177.114 37.2152 180.73 38.9947 185.19C41.358 191.105 38.8 194.25 38.6888 194.388C38.6193 194.471 38.522 194.513 38.4247 194.513C38.3274 194.513 38.2301 194.471 38.1745 194.388C35.0187 190.385 34.3097 186.714 34.5739 183.764C34.9492 179.539 37.3125 176.824 37.3403 176.768ZM38.3691 185.454C37.1457 182.392 37.0345 179.746 37.1179 178.25C35.686 180.55 33.0586 186.492 38.4247 193.599C38.9808 192.657 40.1624 189.928 38.3691 185.454Z" fill="#0B4677"/>
<path d="M38.5637 194.111C38.5637 194.111 38.3691 193.557 38.1883 192.712C38.091 192.296 37.9242 191.811 37.8408 191.271C37.7574 190.731 37.6601 190.163 37.5628 189.595C37.4376 189.027 37.3264 188.459 37.2986 187.919C37.2569 187.379 37.2013 186.866 37.1735 186.437C37.0901 185.564 37.0067 184.982 37.0067 184.982V184.968C36.9928 184.899 36.9372 184.844 36.8538 184.858C36.7843 184.871 36.7426 184.927 36.7426 184.982C36.7426 184.982 36.7426 185.564 36.7704 186.451C36.7982 186.894 36.8121 187.406 36.8399 187.961C36.8399 188.515 36.9233 189.096 37.0345 189.678C37.1596 190.26 37.2708 190.828 37.382 191.368C37.4933 191.908 37.6879 192.393 37.7991 192.823C38.0493 193.681 38.3135 194.194 38.3135 194.194V194.208C38.3413 194.277 38.4247 194.305 38.4942 194.263C38.5498 194.236 38.5776 194.166 38.5637 194.111Z" fill="#0B4677"/>
<path d="M55.0513 186.797C55.093 186.783 59.1107 184.871 62.0439 179.829C65.9782 173.083 74.2637 173 74.3471 173C74.4583 173 74.5556 173.055 74.6112 173.139C74.6807 173.222 74.6946 173.332 74.6668 173.443C74.6251 173.596 74.1941 174.635 69.6482 180.065C64.4768 186.257 55.6074 187.42 55.232 187.462C55.0652 187.489 54.9123 187.379 54.8706 187.212C54.8567 187.171 54.8567 187.129 54.8567 187.088C54.8706 186.963 54.9401 186.852 55.0513 186.797ZM62.6139 180.189C60.7511 183.389 58.499 185.356 56.9976 186.409C59.8892 185.73 65.5333 183.916 69.1339 179.608C72.1089 176.047 73.2766 174.427 73.7354 173.72C71.8169 173.873 65.7557 174.801 62.6139 180.189Z" fill="#0B4677"/>
<path d="M55.6769 187.046C55.6769 187.046 56.5805 186.838 57.8456 186.284C58.4573 185.979 59.1941 185.661 59.9309 185.19C60.6816 184.76 61.4323 184.248 62.183 183.707C62.9476 183.195 63.6149 182.572 64.2821 182.018C64.9494 181.477 65.5194 180.909 65.9921 180.411C66.9374 179.413 67.5769 178.748 67.5769 178.748C67.6464 178.679 67.6464 178.568 67.5769 178.513C67.5213 178.444 67.4101 178.444 67.3545 178.513L67.3406 178.527C67.3406 178.527 66.6594 179.136 65.6445 180.037C65.158 180.508 64.5463 181.02 63.8929 181.547C63.2395 182.087 62.5583 182.682 61.8076 183.181C61.0708 183.694 60.334 184.22 59.6111 184.636C59.2497 184.843 58.916 185.093 58.5824 185.273C58.2487 185.453 57.929 185.633 57.6371 185.799C57.0393 186.09 56.5388 186.367 56.1774 186.492C55.8298 186.644 55.6074 186.713 55.6074 186.713C55.524 186.741 55.4684 186.838 55.4962 186.921C55.5101 187.004 55.5935 187.06 55.6769 187.046Z" fill="#0B4677"/>
<path d="M1.16776 214.21C3.87862 213.462 10.8851 211.135 17.2244 205.76C20.0604 203.336 23.6609 199.444 24.7314 194.665C25.2736 192.462 25.2736 189.955 24.7175 187.6C23.8139 183.721 21.2698 181.186 17.7109 180.646C14.5969 180.161 11.3995 181.38 10.1205 183.555C9.35594 184.816 9.34204 186.45 10.0927 187.794C10.8295 189.124 12.1502 189.913 13.6377 189.899C14.8333 189.886 15.723 189.332 16.0844 188.791C16.571 188.071 16.4598 187.378 16.3486 186.769C16.2374 186.09 16.0844 185.245 17.1827 184.926C17.7249 184.774 18.1975 184.94 18.5173 185.397C19.2123 186.423 18.9899 188.971 18.0863 190.246C17.1688 191.576 15.4589 192.379 13.6238 192.351C11.2744 192.351 9.18912 191.077 8.06307 188.944C6.93702 186.81 6.99263 184.275 8.21599 182.336C8.85548 181.283 9.82861 180.383 11.0381 179.718C13.9853 178.07 17.5719 177.931 20.6164 179.344C23.6609 180.757 25.774 183.527 26.5247 187.115C27.1225 189.802 27.0947 192.559 26.4274 195.094C25.1623 200.316 21.242 204.444 18.1697 206.979C11.1215 212.77 3.92032 214.459 1.13996 214.903C0.959232 214.93 0.778508 214.82 0.736802 214.64C0.7229 214.598 0.7229 214.556 0.7229 214.529C0.79241 214.307 1.04264 214.238 1.16776 214.21ZM17.9751 185.785C17.8222 185.564 17.6414 185.494 17.3773 185.578C16.9046 185.716 16.8907 185.855 17.0159 186.63C17.1271 187.295 17.2939 188.223 16.6405 189.165C16.0983 190.01 14.9167 190.564 13.6377 190.578C11.9 190.592 10.3569 189.678 9.49496 188.126C8.63305 186.561 8.64695 184.677 9.53667 183.195C10.9408 180.799 14.4162 179.455 17.8083 179.967C21.6452 180.563 24.3977 183.278 25.357 187.434C25.9408 189.886 25.9408 192.518 25.3709 194.817C24.2587 199.776 20.5469 203.793 17.6414 206.287C15.292 208.281 12.8453 209.861 10.5515 211.107C12.8453 209.985 15.3059 208.475 17.7666 206.453C20.7555 203.987 24.5646 199.97 25.7879 194.928C26.4274 192.504 26.4552 189.844 25.8713 187.268C25.1484 183.888 23.1883 181.297 20.3384 179.967C17.4885 178.638 14.1243 178.776 11.3578 180.328C10.2596 180.937 9.36985 181.768 8.78597 182.71C7.68772 184.442 7.64602 186.713 8.66085 188.625C9.66178 190.523 11.5246 191.659 13.6377 191.673C15.2364 191.686 16.7656 190.98 17.5441 189.858C17.9334 189.318 18.1836 188.459 18.2531 187.642C18.3226 186.894 18.2392 186.173 17.9751 185.785Z" fill="#0B4677"/>
<path d="M1.41802 197.393C2.46066 195.606 4.01766 194.484 5.8249 194.235C7.72945 193.972 9.75912 194.692 11.2744 196.174C12.7897 197.67 13.6377 199.665 13.6655 201.784C13.6933 204.5 12.4422 207.228 10.0233 209.722C6.51999 213.351 1.13998 215.277 0.639515 215.221C0.500496 215.207 0.37538 215.096 0.333674 214.958C0.264165 214.695 0.319772 214.653 1.18169 214.085C2.44675 213.226 5.43565 211.218 7.88237 208.752C10.5098 206.12 11.8027 203.71 11.7332 201.632C11.6915 200.205 10.9964 198.889 9.66181 197.726C8.61917 196.812 7.3541 196.41 6.20025 196.618C5.12981 196.812 4.22619 197.518 3.5728 198.668C3.14185 199.43 3.30867 200.067 3.46159 200.385C3.67012 200.856 4.08717 201.217 4.50423 201.286C4.57374 201.3 4.61544 201.3 4.62934 201.314C4.64324 201.314 4.64324 201.314 4.65715 201.314C5.50516 201.341 5.93612 202.034 5.93612 202.699C5.92221 203.377 5.46345 204.056 4.60154 204.07C4.57374 204.07 4.47642 204.056 4.44862 204.056C4.12888 204.029 3.29477 203.945 2.27993 203.087C1.79337 202.657 1.13998 201.923 0.861944 200.801C0.736827 200.358 0.709024 199.887 0.750729 199.402C0.792435 198.709 1.02877 198.003 1.41802 197.393ZM5.26883 202.699C5.26883 202.38 5.10201 202.02 4.61544 202.006C4.60154 202.006 4.58764 202.006 4.55983 202.006C4.51813 202.006 4.46252 201.992 4.37911 201.978C3.76743 201.881 3.15575 201.383 2.84991 200.704C2.50236 199.942 2.55797 199.111 2.98893 198.349C3.73962 197.019 4.81007 196.202 6.07513 195.967C7.42361 195.731 8.88331 196.188 10.0928 197.227C11.5803 198.515 12.3449 199.998 12.4005 201.632C12.47 203.945 11.1076 206.494 8.34113 209.265C6.53389 211.093 4.43472 212.672 2.93332 213.725C4.81007 212.88 7.49312 211.384 9.55059 209.251C11.8305 206.896 13.0122 204.306 12.9983 201.798C12.9704 199.859 12.2058 198.031 10.8157 196.673C9.45328 195.329 7.61824 194.678 5.92221 194.914C4.3096 195.135 2.94722 196.119 2.00189 197.753C1.45972 198.612 1.2651 199.734 1.51533 200.621C1.75166 201.577 2.30774 202.2 2.72479 202.56C3.5728 203.281 4.24009 203.336 4.51813 203.364C4.57374 203.364 4.60154 203.377 4.64324 203.377C5.0881 203.377 5.25493 203.003 5.26883 202.699Z" fill="#0B4677"/>
<path d="M6.2419 212.313C12.2058 207.991 17.0019 201.772 18.4477 196.452C18.698 195.552 18.6562 194.859 18.3504 194.471C18.1002 194.167 17.7248 194.084 17.5163 194.056C17.2522 194.458 16.8768 194.554 16.5849 194.485C16.1539 194.388 15.8481 193.959 15.8759 193.46C15.9037 192.587 16.6683 191.936 17.7387 191.909C19.2123 191.881 20.7693 192.989 20.9083 195.192C21.2559 200.746 15.7647 207.52 6.57555 212.867C6.43653 212.95 6.2419 212.909 6.15849 212.756C6.11679 212.701 6.10288 212.632 6.11679 212.562C6.11679 212.452 6.17239 212.368 6.2419 212.313ZM20.2828 195.219C20.1576 193.335 18.8787 192.504 17.7387 192.532C17.1409 192.546 16.5432 192.823 16.4876 193.405C16.4876 193.419 16.4876 193.446 16.4876 193.46C16.4876 193.682 16.5988 193.82 16.7239 193.848C16.8907 193.89 17.0019 193.682 17.0436 193.585C17.0853 193.474 17.1966 193.405 17.3078 193.405C17.3495 193.405 18.267 193.349 18.8231 194.042C19.2679 194.61 19.3513 195.469 19.0455 196.605C17.9194 200.733 14.861 205.387 10.7878 209.307C16.3902 205.124 19.8935 200.386 20.255 196.341C20.3106 195.967 20.3106 195.593 20.2828 195.219Z" fill="#0B4677"/>
<path d="M0.375341 215.097C0.556065 215.041 0.750691 215.138 0.8202 215.332C0.834102 215.387 3.0584 221.081 13.318 220.236C14.4301 220.139 15.8481 219.945 17.4746 219.709C23.9251 218.781 32.7666 217.521 36.1309 221.039C37.7157 222.701 38.3135 224.599 37.7852 226.234C37.4237 227.328 36.6035 228.131 35.686 228.284C35.0326 228.395 34.421 228.131 34.0178 227.564C33.2532 226.483 33.9344 225.278 34.5461 224.641C32.6137 221.178 25.8713 221.579 18.7536 222.009C16.5988 222.133 14.3606 222.272 12.2058 222.314C1.43188 222.452 0.125108 215.595 0.111206 215.526C0.111206 215.498 0.111206 215.457 0.111206 215.429C0.125108 215.277 0.222421 215.152 0.375341 215.097ZM35.2412 224.973C35.1856 225.015 33.9344 226.151 34.6156 227.093C34.9214 227.522 35.3107 227.564 35.5748 227.522C36.2143 227.411 36.826 226.802 37.0901 225.984C37.535 224.627 36.9928 223.006 35.6026 221.552C32.5025 218.31 23.5219 219.598 17.5719 220.443C15.9176 220.679 14.4996 220.887 13.3736 220.984C8.42451 221.399 5.25489 220.374 3.26692 219.1C4.92124 220.443 7.65991 221.607 12.1919 221.538C14.3467 221.51 16.571 221.372 18.7119 221.247C26.2467 220.79 33.3644 220.36 35.3385 224.53C35.3663 224.599 35.3802 224.655 35.3802 224.724C35.3663 224.821 35.3107 224.904 35.2412 224.973Z" fill="#0B4677"/>
<path d="M0.0417201 215.471C0.0695238 215.319 0.208542 215.208 0.375364 215.222C0.528284 215.236 0.653401 215.374 0.653401 215.527C0.653401 215.582 0.722911 220.652 8.9389 223.062C9.82862 223.325 10.9825 223.589 12.317 223.893C17.5858 225.099 24.787 226.747 26.3857 230.487C27.1364 232.246 27.0669 233.909 26.1772 235.017C25.5933 235.765 24.7175 236.139 23.9668 235.986C23.4246 235.876 23.0354 235.488 22.8824 234.934C22.5905 233.867 23.4663 233.133 24.1336 232.814C23.6192 229.545 18.2809 227.855 12.6507 226.068C10.9408 225.528 9.18913 224.974 7.49311 224.351C-0.097298 221.566 -0.0416909 216.621 0.0417201 215.665C0.0278183 215.527 0.0417201 215.471 0.0417201 215.471ZM24.5368 233.271C24.4812 233.299 23.1883 233.798 23.4385 234.74C23.5497 235.169 23.8417 235.308 24.0641 235.349C24.5924 235.46 25.2458 235.155 25.6767 234.601C26.4135 233.673 26.4552 232.26 25.7879 230.709C24.3143 227.259 16.9881 225.583 12.1363 224.475C10.7878 224.17 9.63399 223.907 8.73037 223.644C4.78225 222.494 2.62746 220.749 1.4319 219.17C2.32162 220.707 4.11496 222.425 7.64603 223.727C9.31425 224.337 11.0798 224.905 12.7758 225.431C18.7397 227.329 24.3838 229.116 24.7175 232.939C24.7175 232.953 24.7175 232.98 24.7175 232.994C24.7314 233.133 24.6619 233.23 24.5368 233.271Z" fill="#0B4677"/>
<path d="M0.389277 214.986C0.528295 214.875 0.709019 214.875 0.834136 215C0.903645 215.069 7.64604 221.483 23.2578 214.141C33.5035 209.32 40.1346 207.921 43.5267 209.86C45.3478 210.899 46.3627 212.409 46.3071 213.988C46.2654 215.069 45.751 215.969 44.9725 216.357C44.4164 216.62 43.8186 216.565 43.3182 216.163C42.3728 215.429 42.6648 214.169 43.0401 213.448C39.6898 210.179 29.9585 213.836 22.1318 216.773L21.5479 216.994C5.49125 223.034 0.528295 215.748 0.319768 215.443C0.278062 215.374 0.26416 215.304 0.26416 215.221C0.278062 215.124 0.319768 215.041 0.389277 214.986ZM43.763 213.587C43.7491 213.601 42.9011 214.972 43.7491 215.623C44.1245 215.914 44.4859 215.845 44.7083 215.734C45.2505 215.471 45.612 214.75 45.6537 213.975C45.6954 212.659 44.8057 211.384 43.2069 210.47C40.0512 208.669 33.4479 210.124 23.5358 214.764C14.8472 218.851 8.8555 218.809 5.14371 217.867C8.29942 218.961 13.4431 219.322 21.3254 216.357L21.9093 216.136C30.5007 212.908 40.232 209.251 43.7213 213.157C43.7908 213.227 43.8186 213.324 43.8047 213.421C43.8047 213.49 43.7908 213.531 43.763 213.587Z" fill="#0B4677"/>
<path d="M83.5362 193.252C83.7447 193.141 83.9115 193.293 84.0645 193.418C84.0645 193.418 84.0645 193.418 84.0784 193.432C84.2591 193.612 84.4398 193.778 84.6344 193.958C86.539 195.524 92.8504 200.081 107.072 205.4C115.51 208.545 126.688 209.21 132.624 203.586C135.056 201.342 136.141 198.072 135.515 194.817C135.029 192.255 133.541 190.232 131.65 189.539C129.579 188.985 127.98 189.11 126.896 189.913C126.118 190.481 125.812 191.299 125.714 191.687C125.714 191.7 125.714 191.714 125.714 191.728C125.7 191.825 125.7 191.922 125.659 192.005C125.422 192.919 124.602 193.293 123.852 193.21C123.031 193.099 122.281 192.448 122.42 191.313C122.99 188.293 124.95 186.215 127.8 185.633C131.359 184.899 135.265 186.589 137.295 189.747C139.491 193.169 139.908 197.491 138.407 201.286C136.613 205.816 132.401 209.071 126.548 210.456C119.417 212.368 111.256 210.359 105.654 208.351C98.2304 205.677 91.2378 201.189 84.3147 194.651C83.9533 194.346 83.6891 194.097 83.5362 193.931C83.425 193.792 83.3555 193.709 83.3555 193.654C83.3555 193.64 83.3555 193.626 83.3555 193.612C83.3555 193.418 83.425 193.307 83.5362 193.252ZM136.711 190.08C134.862 187.198 131.164 185.592 127.911 186.27C125.339 186.811 123.573 188.681 123.059 191.382C122.962 192.047 123.421 192.435 123.921 192.504C124.38 192.559 124.866 192.351 125.005 191.756C125.061 191.382 125.311 190.703 125.617 190.246C126.423 189.082 128.147 187.891 131.831 188.875C133.972 189.65 135.626 191.88 136.155 194.679C136.822 198.169 135.654 201.688 133.055 204.098C126.91 209.916 115.455 209.279 106.822 206.065C98.4668 202.948 92.628 199.998 88.8745 197.754C94.3935 202.284 99.9821 205.553 105.849 207.672C111.354 209.653 119.375 211.634 126.354 209.764C131.998 208.42 136.043 205.317 137.753 201.009C138.184 199.929 138.448 198.793 138.546 197.657C138.782 194.997 138.157 192.338 136.711 190.08Z" fill="#0B4677"/>
<path d="M130.052 208.517C130.455 208.296 130.914 208.06 131.4 207.783C133.666 206.523 136.78 204.805 140.728 203.683C145.9 202.215 151.6 202.644 156.326 204.874C160.455 206.661 163.124 209.612 163.833 213.186C164.431 216.178 163.555 219.294 161.484 221.538C159.565 223.602 156.451 224.337 153.921 223.312C151.878 222.494 150.71 220.694 150.696 218.352C150.696 218.339 150.696 218.311 150.696 218.297C150.738 217.826 150.988 217.438 151.377 217.23C151.808 217.009 152.35 217.037 152.767 217.3C153.087 217.521 153.296 217.868 153.323 218.269C153.337 218.352 153.337 218.422 153.323 218.491C153.337 218.74 153.435 219.378 153.949 219.904C154.616 220.597 155.742 220.887 157.258 220.763C158.717 220.5 160.052 219.239 160.733 217.466C161.595 215.208 161.247 212.701 159.788 210.775C156.146 205.816 147.735 204.888 141.479 206.135C135.223 207.382 130.385 209.113 130.344 209.127C130.177 209.182 129.996 209.113 129.927 208.947C129.899 208.891 129.899 208.836 129.899 208.781C129.871 208.67 129.941 208.573 130.052 208.517ZM161.331 217.715C160.566 219.71 159.037 221.137 157.313 221.442C154.463 221.677 153.337 220.555 152.892 219.571C152.753 219.267 152.601 218.713 152.642 218.366C152.642 218.366 152.642 218.366 152.642 218.352C152.628 218.145 152.545 217.978 152.392 217.882C152.183 217.743 151.892 217.729 151.683 217.84C151.544 217.909 151.391 218.075 151.363 218.366C151.377 221.137 153.129 222.245 154.171 222.661C156.424 223.561 159.287 222.882 160.997 221.054C162.916 218.976 163.736 216.081 163.18 213.31C162.513 209.972 159.982 207.201 156.062 205.484C151.461 203.323 145.942 202.907 140.923 204.334C138.004 205.165 135.543 206.329 133.541 207.395C135.543 206.8 138.282 206.079 141.354 205.47C147.818 204.182 156.507 205.179 160.33 210.36C161.498 211.897 162.012 213.767 161.845 215.637C161.748 216.344 161.595 217.037 161.331 217.715Z" fill="#0B4677"/>
<path d="M154.005 182.336C154.116 182.281 154.227 182.294 154.324 182.364C154.422 182.433 154.477 182.544 154.477 182.655C154.297 194.554 146.053 195.593 145.969 195.606C145.789 195.62 145.636 195.496 145.608 195.329C145.469 194.484 145.441 193.667 145.511 192.891C146.122 186.09 153.921 182.378 154.005 182.336ZM153.796 183.209C151.933 184.234 145.399 188.306 146.22 194.858C147.665 194.567 153.435 192.794 153.796 183.209Z" fill="#0B4677"/>
<path d="M146.039 195.33C146.039 195.33 146.359 194.915 146.79 194.277C147.22 193.626 147.79 192.768 148.416 191.936C148.986 191.078 149.556 190.205 149.987 189.554C150.404 188.903 150.668 188.446 150.668 188.446V188.432C150.71 188.363 150.682 188.293 150.626 188.252C150.571 188.224 150.501 188.238 150.46 188.279C150.46 188.279 150.126 188.681 149.667 189.304C149.208 189.942 148.597 190.787 147.985 191.632C146.79 193.349 145.816 195.192 145.816 195.192C145.789 195.261 145.803 195.344 145.872 195.372C145.928 195.399 145.997 195.372 146.039 195.33Z" fill="#0B4677"/>
</g>
</svg>
