<svg width="64" height="27" viewBox="0 0 64 27" fill="none" xmlns="http://www.w3.org/2000/svg">
<path d="M4.49775 10.5332C4.49775 9.83354 5.06662 9.56432 6.009 9.56432C7.36 9.56432 9.06663 9.97711 10.4178 10.7127V6.49614C8.94225 5.90407 7.4845 5.6708 6.009 5.6708C2.4 5.6708 0 7.57277 0 10.7487C0 15.7007 6.7555 14.9113 6.7555 17.0465C6.7555 17.8717 6.0445 18.141 5.04887 18.141C3.57337 18.141 1.68887 17.5309 0.1955 16.7055V20.9759C1.84888 21.6936 3.52 21.9985 5.04887 21.9985C8.74662 21.9985 11.2889 20.1506 11.2889 16.9388C11.2711 11.5919 4.49775 12.5428 4.49775 10.5332ZM16.5155 2.08234L12.1777 3.01529L12.16 17.3873C12.16 20.0429 14.1334 21.9985 16.7645 21.9985C18.2222 21.9985 19.2889 21.7294 19.8755 21.4065V17.7641C19.3067 17.9974 16.4977 18.8227 16.4977 16.1672V9.79758H19.8755V5.97586H16.4977L16.5155 2.08234ZM25.4045 7.30355L25.12 5.97586H21.28V21.6756H25.7245V11.0357C26.7733 9.65414 28.5511 9.90532 29.1022 10.1026V5.97586C28.5334 5.7605 26.4534 5.36575 25.4045 7.30355ZM30.1866 5.97586H34.6489V21.6756H30.1866V5.97586ZM30.1866 4.61221L34.6489 3.64331V0.000976562L30.1866 0.951962V4.61221ZM43.9289 5.6708C42.1866 5.6708 41.0666 6.49614 40.4445 7.07041L40.2132 5.95794H36.3022V26.8789L40.7466 25.928L40.7645 20.8502C41.4045 21.3168 42.3466 21.9806 43.9111 21.9806C47.0934 21.9806 49.9911 19.3969 49.9911 13.7091C49.9734 8.50572 47.04 5.6708 43.9289 5.6708ZM42.8623 18.0332C41.8134 18.0332 41.191 17.6565 40.7645 17.19L40.7466 10.5332C41.2089 10.0129 41.8489 9.65414 42.8623 9.65414C44.48 9.65414 45.6 11.4842 45.6 13.8347C45.6 16.239 44.4977 18.0332 42.8623 18.0332ZM64 13.8885C64 9.29522 61.7955 5.6708 57.5822 5.6708C53.351 5.6708 50.791 9.29535 50.791 13.8527C50.791 19.2533 53.8134 21.9806 58.151 21.9806C60.2666 21.9806 61.8666 21.4962 63.0755 20.8144V17.2258C61.8667 17.8359 60.48 18.2128 58.72 18.2128C56.9955 18.2128 55.4666 17.6026 55.2711 15.4855H63.9645C63.9645 15.2521 64 14.3191 64 13.8885ZM55.2178 12.184C55.2178 10.1565 56.4445 9.31314 57.5645 9.31314C58.6489 9.31314 59.8045 10.1565 59.8045 12.184H55.2178Z" fill="#6772E5"/>
</svg>
